<?xml version="1.0" encoding="utf-8"?>
<!-- Generator: Adobe Illustrator 18.1.1, SVG Export Plug-In . SVG Version: 6.00 Build 0)  -->
<!DOCTYPE svg PUBLIC "-//W3C//DTD SVG 1.1//EN" "http://www.w3.org/Graphics/SVG/1.1/DTD/svg11.dtd">
<svg version="1.1" id="Layer_1" xmlns="http://www.w3.org/2000/svg" xmlns:xlink="http://www.w3.org/1999/xlink" x="0px" y="0px"
	 width="101.8px" height="98.3px" viewBox="256 348.3 101.8 98.3" enable-background="new 256 348.3 101.8 98.3"
	 xml:space="preserve">
<g>
	<path fill="#FFFFFF" d="M357.8,357.2l-15.4,5.6c-7.9-8.9-19.4-14.5-32.8-14.5c-26.7,0-50.6,22-53.3,49.2
		c-2.7,27.2,16.8,49.2,43.5,49.2s50.6-22,53.3-49.2c0.9-9.2-0.7-17.9-4.4-25.3L357.8,357.2z M346.4,392.6
		c-2.1,20.7-21,37.5-42.2,37.5c-21.2,0-36.8-16.8-34.7-37.5c2.1-20.7,21-37.5,42.2-37.5c12.1,0,22.3,5.4,28.5,13.9l10.2-6.2
		l-8.4,8.8l-6.1,6.4l-34.1,35.3c2.7,1,5.7,1.6,8.8,1.6c13.9,0,26.2-10.9,27.5-24.4c0.3-2.9,0.1-5.6-0.6-8.2l5.8-8.3
		C345.9,379.6,347.1,385.9,346.4,392.6z"/>
	<path fill="#FFFFFF" d="M315.5,366.2c-13.9,0-26.2,10.9-27.5,24.4c-0.3,3.4,0,6.6,1,9.5l43.8-26.5
		C328.7,369,322.6,366.2,315.5,366.2z"/>
</g>
</svg>
